<mxfile host="app.diagrams.net" modified="2025-01-30T01:15:42.774Z" agent="Mozilla/5.0 (Windows NT 10.0; Win64; x64) AppleWebKit/537.36 (KHTML, like Gecko) Chrome/132.0.0.0 Safari/537.36" etag="1zvIa-qsKe2BRjVOZtG5" version="24.3.1" type="google">
  <diagram name="PÃ¡gina-1" id="-F_bBcI9cbi-s5fPtLU2">
    <mxGraphModel grid="1" page="1" gridSize="10" guides="1" tooltips="1" connect="1" arrows="1" fold="1" pageScale="1" pageWidth="827" pageHeight="1169" math="0" shadow="0">
      <root>
        <mxCell id="0" />
        <mxCell id="1" parent="0" />
        <mxCell id="wfSB1sdzqmvBSZrPcdIY-5" style="edgeStyle=orthogonalEdgeStyle;rounded=0;orthogonalLoop=1;jettySize=auto;html=1;exitX=0;exitY=0.5;exitDx=0;exitDy=0;entryX=1;entryY=0.5;entryDx=0;entryDy=0;" edge="1" parent="1" source="wfSB1sdzqmvBSZrPcdIY-1" target="wfSB1sdzqmvBSZrPcdIY-4">
          <mxGeometry relative="1" as="geometry" />
        </mxCell>
        <mxCell id="wfSB1sdzqmvBSZrPcdIY-7" style="edgeStyle=orthogonalEdgeStyle;rounded=0;orthogonalLoop=1;jettySize=auto;html=1;exitX=0;exitY=0.5;exitDx=0;exitDy=0;entryX=1;entryY=0.5;entryDx=0;entryDy=0;" edge="1" parent="1" source="wfSB1sdzqmvBSZrPcdIY-1" target="wfSB1sdzqmvBSZrPcdIY-6">
          <mxGeometry relative="1" as="geometry" />
        </mxCell>
        <mxCell id="wfSB1sdzqmvBSZrPcdIY-11" style="edgeStyle=orthogonalEdgeStyle;rounded=0;orthogonalLoop=1;jettySize=auto;html=1;exitX=0;exitY=0.5;exitDx=0;exitDy=0;entryX=1;entryY=0.5;entryDx=0;entryDy=0;" edge="1" parent="1" source="wfSB1sdzqmvBSZrPcdIY-1" target="wfSB1sdzqmvBSZrPcdIY-8">
          <mxGeometry relative="1" as="geometry" />
        </mxCell>
        <mxCell id="wfSB1sdzqmvBSZrPcdIY-12" style="edgeStyle=orthogonalEdgeStyle;rounded=0;orthogonalLoop=1;jettySize=auto;html=1;exitX=0;exitY=0.5;exitDx=0;exitDy=0;entryX=1;entryY=0.5;entryDx=0;entryDy=0;" edge="1" parent="1" source="wfSB1sdzqmvBSZrPcdIY-1" target="wfSB1sdzqmvBSZrPcdIY-10">
          <mxGeometry relative="1" as="geometry" />
        </mxCell>
        <mxCell id="wfSB1sdzqmvBSZrPcdIY-1" value="Autos deportivos" style="whiteSpace=wrap;html=1;align=center;" vertex="1" parent="1">
          <mxGeometry x="180" y="80" width="100" height="40" as="geometry" />
        </mxCell>
        <mxCell id="wfSB1sdzqmvBSZrPcdIY-4" value="Nombre" style="ellipse;whiteSpace=wrap;html=1;align=center;" vertex="1" parent="1">
          <mxGeometry x="40" y="60" width="100" height="40" as="geometry" />
        </mxCell>
        <mxCell id="wfSB1sdzqmvBSZrPcdIY-6" value="Id_Auto" style="ellipse;whiteSpace=wrap;html=1;align=center;fontStyle=4;" vertex="1" parent="1">
          <mxGeometry x="40" y="10" width="100" height="40" as="geometry" />
        </mxCell>
        <mxCell id="wfSB1sdzqmvBSZrPcdIY-8" value="Modelo" style="ellipse;whiteSpace=wrap;html=1;align=center;" vertex="1" parent="1">
          <mxGeometry x="40" y="110" width="100" height="40" as="geometry" />
        </mxCell>
        <mxCell id="wfSB1sdzqmvBSZrPcdIY-10" value="Velocidad" style="ellipse;whiteSpace=wrap;html=1;align=center;" vertex="1" parent="1">
          <mxGeometry x="40" y="160" width="100" height="40" as="geometry" />
        </mxCell>
        <mxCell id="wfSB1sdzqmvBSZrPcdIY-14" style="edgeStyle=orthogonalEdgeStyle;rounded=0;orthogonalLoop=1;jettySize=auto;html=1;exitX=0;exitY=0.5;exitDx=0;exitDy=0;entryX=1;entryY=0.5;entryDx=0;entryDy=0;" edge="1" parent="1" source="wfSB1sdzqmvBSZrPcdIY-13" target="wfSB1sdzqmvBSZrPcdIY-1">
          <mxGeometry relative="1" as="geometry" />
        </mxCell>
        <mxCell id="wfSB1sdzqmvBSZrPcdIY-13" value="Vender" style="shape=rhombus;perimeter=rhombusPerimeter;whiteSpace=wrap;html=1;align=center;" vertex="1" parent="1">
          <mxGeometry x="330" y="70" width="120" height="60" as="geometry" />
        </mxCell>
        <mxCell id="wfSB1sdzqmvBSZrPcdIY-20" style="edgeStyle=orthogonalEdgeStyle;rounded=0;orthogonalLoop=1;jettySize=auto;html=1;exitX=1;exitY=0.5;exitDx=0;exitDy=0;" edge="1" parent="1" source="wfSB1sdzqmvBSZrPcdIY-15" target="wfSB1sdzqmvBSZrPcdIY-18">
          <mxGeometry relative="1" as="geometry" />
        </mxCell>
        <mxCell id="wfSB1sdzqmvBSZrPcdIY-21" style="edgeStyle=orthogonalEdgeStyle;rounded=0;orthogonalLoop=1;jettySize=auto;html=1;exitX=1;exitY=0.5;exitDx=0;exitDy=0;" edge="1" parent="1" source="wfSB1sdzqmvBSZrPcdIY-15" target="wfSB1sdzqmvBSZrPcdIY-16">
          <mxGeometry relative="1" as="geometry" />
        </mxCell>
        <mxCell id="wfSB1sdzqmvBSZrPcdIY-22" style="edgeStyle=orthogonalEdgeStyle;rounded=0;orthogonalLoop=1;jettySize=auto;html=1;entryX=1;entryY=0.5;entryDx=0;entryDy=0;" edge="1" parent="1" source="wfSB1sdzqmvBSZrPcdIY-15" target="wfSB1sdzqmvBSZrPcdIY-13">
          <mxGeometry relative="1" as="geometry" />
        </mxCell>
        <mxCell id="wfSB1sdzqmvBSZrPcdIY-15" value="Dueno" style="whiteSpace=wrap;html=1;align=center;" vertex="1" parent="1">
          <mxGeometry x="530" y="80" width="100" height="40" as="geometry" />
        </mxCell>
        <mxCell id="wfSB1sdzqmvBSZrPcdIY-16" value="Nombre_Dueno" style="ellipse;whiteSpace=wrap;html=1;align=center;" vertex="1" parent="1">
          <mxGeometry x="680" y="100" width="100" height="40" as="geometry" />
        </mxCell>
        <mxCell id="wfSB1sdzqmvBSZrPcdIY-18" value="Id_Dueno" style="ellipse;whiteSpace=wrap;html=1;align=center;fontStyle=4;" vertex="1" parent="1">
          <mxGeometry x="680" y="50" width="100" height="40" as="geometry" />
        </mxCell>
        <mxCell id="wfSB1sdzqmvBSZrPcdIY-26" style="edgeStyle=orthogonalEdgeStyle;rounded=0;orthogonalLoop=1;jettySize=auto;html=1;" edge="1" parent="1" source="wfSB1sdzqmvBSZrPcdIY-23" target="wfSB1sdzqmvBSZrPcdIY-15">
          <mxGeometry relative="1" as="geometry" />
        </mxCell>
        <mxCell id="wfSB1sdzqmvBSZrPcdIY-23" value="Pertenecer" style="shape=rhombus;perimeter=rhombusPerimeter;whiteSpace=wrap;html=1;align=center;" vertex="1" parent="1">
          <mxGeometry x="530" y="170" width="120" height="60" as="geometry" />
        </mxCell>
        <mxCell id="wfSB1sdzqmvBSZrPcdIY-25" style="edgeStyle=orthogonalEdgeStyle;rounded=0;orthogonalLoop=1;jettySize=auto;html=1;" edge="1" parent="1" source="wfSB1sdzqmvBSZrPcdIY-24" target="wfSB1sdzqmvBSZrPcdIY-23">
          <mxGeometry relative="1" as="geometry" />
        </mxCell>
        <mxCell id="wfSB1sdzqmvBSZrPcdIY-30" style="edgeStyle=orthogonalEdgeStyle;rounded=0;orthogonalLoop=1;jettySize=auto;html=1;exitX=0.5;exitY=1;exitDx=0;exitDy=0;" edge="1" parent="1" source="wfSB1sdzqmvBSZrPcdIY-24" target="wfSB1sdzqmvBSZrPcdIY-28">
          <mxGeometry relative="1" as="geometry" />
        </mxCell>
        <mxCell id="wfSB1sdzqmvBSZrPcdIY-31" style="edgeStyle=orthogonalEdgeStyle;rounded=0;orthogonalLoop=1;jettySize=auto;html=1;exitX=1;exitY=0.5;exitDx=0;exitDy=0;" edge="1" parent="1" source="wfSB1sdzqmvBSZrPcdIY-24" target="wfSB1sdzqmvBSZrPcdIY-29">
          <mxGeometry relative="1" as="geometry" />
        </mxCell>
        <mxCell id="wfSB1sdzqmvBSZrPcdIY-39" style="edgeStyle=orthogonalEdgeStyle;rounded=0;orthogonalLoop=1;jettySize=auto;html=1;exitX=0;exitY=0.5;exitDx=0;exitDy=0;entryX=1;entryY=0.5;entryDx=0;entryDy=0;" edge="1" parent="1" source="wfSB1sdzqmvBSZrPcdIY-24" target="wfSB1sdzqmvBSZrPcdIY-38">
          <mxGeometry relative="1" as="geometry" />
        </mxCell>
        <mxCell id="wfSB1sdzqmvBSZrPcdIY-24" value="Marca" style="whiteSpace=wrap;html=1;align=center;" vertex="1" parent="1">
          <mxGeometry x="540" y="330" width="100" height="40" as="geometry" />
        </mxCell>
        <mxCell id="wfSB1sdzqmvBSZrPcdIY-28" value="Nombre_Marca" style="ellipse;whiteSpace=wrap;html=1;align=center;" vertex="1" parent="1">
          <mxGeometry x="540" y="390" width="100" height="40" as="geometry" />
        </mxCell>
        <mxCell id="wfSB1sdzqmvBSZrPcdIY-29" value="Id_Marca" style="ellipse;whiteSpace=wrap;html=1;align=center;fontStyle=4;" vertex="1" parent="1">
          <mxGeometry x="660" y="330" width="100" height="40" as="geometry" />
        </mxCell>
        <mxCell id="wfSB1sdzqmvBSZrPcdIY-36" style="edgeStyle=orthogonalEdgeStyle;rounded=0;orthogonalLoop=1;jettySize=auto;html=1;exitX=0;exitY=0.5;exitDx=0;exitDy=0;entryX=1;entryY=0.5;entryDx=0;entryDy=0;" edge="1" parent="1" source="wfSB1sdzqmvBSZrPcdIY-32" target="wfSB1sdzqmvBSZrPcdIY-35">
          <mxGeometry relative="1" as="geometry" />
        </mxCell>
        <mxCell id="wfSB1sdzqmvBSZrPcdIY-41" style="edgeStyle=orthogonalEdgeStyle;rounded=0;orthogonalLoop=1;jettySize=auto;html=1;exitX=0;exitY=0.5;exitDx=0;exitDy=0;entryX=1;entryY=0.5;entryDx=0;entryDy=0;" edge="1" parent="1" source="wfSB1sdzqmvBSZrPcdIY-32" target="wfSB1sdzqmvBSZrPcdIY-34">
          <mxGeometry relative="1" as="geometry" />
        </mxCell>
        <mxCell id="wfSB1sdzqmvBSZrPcdIY-52" style="edgeStyle=orthogonalEdgeStyle;rounded=0;orthogonalLoop=1;jettySize=auto;html=1;entryX=0.5;entryY=1;entryDx=0;entryDy=0;" edge="1" parent="1" source="wfSB1sdzqmvBSZrPcdIY-32" target="wfSB1sdzqmvBSZrPcdIY-51">
          <mxGeometry relative="1" as="geometry" />
        </mxCell>
        <mxCell id="wfSB1sdzqmvBSZrPcdIY-32" value="Paises" style="whiteSpace=wrap;html=1;align=center;" vertex="1" parent="1">
          <mxGeometry x="180" y="330" width="100" height="40" as="geometry" />
        </mxCell>
        <mxCell id="wfSB1sdzqmvBSZrPcdIY-34" value="Nombre_Pais" style="ellipse;whiteSpace=wrap;html=1;align=center;" vertex="1" parent="1">
          <mxGeometry x="40" y="380" width="100" height="40" as="geometry" />
        </mxCell>
        <mxCell id="wfSB1sdzqmvBSZrPcdIY-35" value="Id_pais" style="ellipse;whiteSpace=wrap;html=1;align=center;fontStyle=4;" vertex="1" parent="1">
          <mxGeometry x="40" y="320" width="100" height="40" as="geometry" />
        </mxCell>
        <mxCell id="wfSB1sdzqmvBSZrPcdIY-40" style="edgeStyle=orthogonalEdgeStyle;rounded=0;orthogonalLoop=1;jettySize=auto;html=1;exitX=0;exitY=0.5;exitDx=0;exitDy=0;entryX=1;entryY=0.5;entryDx=0;entryDy=0;" edge="1" parent="1" source="wfSB1sdzqmvBSZrPcdIY-38" target="wfSB1sdzqmvBSZrPcdIY-32">
          <mxGeometry relative="1" as="geometry" />
        </mxCell>
        <mxCell id="wfSB1sdzqmvBSZrPcdIY-38" value="Asignar" style="shape=rhombus;perimeter=rhombusPerimeter;whiteSpace=wrap;html=1;align=center;" vertex="1" parent="1">
          <mxGeometry x="350" y="320" width="120" height="60" as="geometry" />
        </mxCell>
        <mxCell id="wfSB1sdzqmvBSZrPcdIY-49" style="edgeStyle=orthogonalEdgeStyle;rounded=0;orthogonalLoop=1;jettySize=auto;html=1;exitX=0.5;exitY=0;exitDx=0;exitDy=0;" edge="1" parent="1" source="wfSB1sdzqmvBSZrPcdIY-42" target="wfSB1sdzqmvBSZrPcdIY-32">
          <mxGeometry relative="1" as="geometry" />
        </mxCell>
        <mxCell id="wfSB1sdzqmvBSZrPcdIY-42" value="Distribuye" style="shape=rhombus;perimeter=rhombusPerimeter;whiteSpace=wrap;html=1;align=center;" vertex="1" parent="1">
          <mxGeometry x="170" y="450" width="120" height="60" as="geometry" />
        </mxCell>
        <mxCell id="wfSB1sdzqmvBSZrPcdIY-46" style="edgeStyle=orthogonalEdgeStyle;rounded=0;orthogonalLoop=1;jettySize=auto;html=1;exitX=0.5;exitY=1;exitDx=0;exitDy=0;entryX=0.5;entryY=0;entryDx=0;entryDy=0;" edge="1" parent="1" source="wfSB1sdzqmvBSZrPcdIY-43" target="wfSB1sdzqmvBSZrPcdIY-44">
          <mxGeometry relative="1" as="geometry" />
        </mxCell>
        <mxCell id="wfSB1sdzqmvBSZrPcdIY-47" style="edgeStyle=orthogonalEdgeStyle;rounded=0;orthogonalLoop=1;jettySize=auto;html=1;exitX=0;exitY=0.5;exitDx=0;exitDy=0;" edge="1" parent="1" source="wfSB1sdzqmvBSZrPcdIY-43" target="wfSB1sdzqmvBSZrPcdIY-45">
          <mxGeometry relative="1" as="geometry" />
        </mxCell>
        <mxCell id="wfSB1sdzqmvBSZrPcdIY-48" style="edgeStyle=orthogonalEdgeStyle;rounded=0;orthogonalLoop=1;jettySize=auto;html=1;exitX=0.5;exitY=0;exitDx=0;exitDy=0;" edge="1" parent="1" source="wfSB1sdzqmvBSZrPcdIY-43" target="wfSB1sdzqmvBSZrPcdIY-42">
          <mxGeometry relative="1" as="geometry" />
        </mxCell>
        <mxCell id="wfSB1sdzqmvBSZrPcdIY-43" value="DistribucionPais" style="whiteSpace=wrap;html=1;align=center;" vertex="1" parent="1">
          <mxGeometry x="180" y="550" width="100" height="40" as="geometry" />
        </mxCell>
        <mxCell id="wfSB1sdzqmvBSZrPcdIY-44" value="Cantidad" style="ellipse;whiteSpace=wrap;html=1;align=center;" vertex="1" parent="1">
          <mxGeometry x="180" y="610" width="100" height="40" as="geometry" />
        </mxCell>
        <mxCell id="wfSB1sdzqmvBSZrPcdIY-45" value="Id_distribucion" style="ellipse;whiteSpace=wrap;html=1;align=center;fontStyle=4;" vertex="1" parent="1">
          <mxGeometry x="40" y="550" width="100" height="40" as="geometry" />
        </mxCell>
        <mxCell id="wfSB1sdzqmvBSZrPcdIY-53" style="edgeStyle=orthogonalEdgeStyle;rounded=0;orthogonalLoop=1;jettySize=auto;html=1;" edge="1" parent="1" source="wfSB1sdzqmvBSZrPcdIY-51" target="wfSB1sdzqmvBSZrPcdIY-1">
          <mxGeometry relative="1" as="geometry" />
        </mxCell>
        <mxCell id="wfSB1sdzqmvBSZrPcdIY-51" value="Asignar" style="shape=rhombus;perimeter=rhombusPerimeter;whiteSpace=wrap;html=1;align=center;" vertex="1" parent="1">
          <mxGeometry x="170" y="200" width="120" height="60" as="geometry" />
        </mxCell>
      </root>
    </mxGraphModel>
  </diagram>
</mxfile>
